<svg width="35" height="39" viewBox="0 0 35 39" fill="none" xmlns="http://www.w3.org/2000/svg">
<path d="M11.375 3.66675H23.625C28.2917 3.66675 32.0834 7.78341 32.0834 12.8501V26.1501C32.0834 28.5857 31.1922 30.9215 29.606 32.6437C28.0197 34.3659 25.8683 35.3334 23.625 35.3334H11.375C6.70835 35.3334 2.91669 31.2167 2.91669 26.1501V12.8501C2.91669 10.4145 3.80783 8.07869 5.39408 6.35648C6.98032 4.63428 9.13173 3.66675 11.375 3.66675ZM11.0834 6.83341C9.69097 6.83341 8.35561 7.43395 7.37104 8.50291C6.38648 9.57186 5.83335 11.0217 5.83335 12.5334V26.4667C5.83335 29.6176 8.18127 32.1667 11.0834 32.1667H23.9167C25.3091 32.1667 26.6444 31.5662 27.629 30.4973C28.6136 29.4283 29.1667 27.9785 29.1667 26.4667V12.5334C29.1667 9.38258 26.8188 6.83341 23.9167 6.83341H11.0834ZM25.1563 9.20841C25.6397 9.20841 26.1034 9.41693 26.4453 9.7881C26.7871 10.1593 26.9792 10.6627 26.9792 11.1876C26.9792 11.7125 26.7871 12.2159 26.4453 12.5871C26.1034 12.9582 25.6397 13.1667 25.1563 13.1667C24.6728 13.1667 24.2091 12.9582 23.8673 12.5871C23.5254 12.2159 23.3334 11.7125 23.3334 11.1876C23.3334 10.6627 23.5254 10.1593 23.8673 9.7881C24.2091 9.41693 24.6728 9.20841 25.1563 9.20841ZM17.5 11.5834C19.4339 11.5834 21.2886 12.4175 22.656 13.9022C24.0235 15.3868 24.7917 17.4004 24.7917 19.5001C24.7917 21.5997 24.0235 23.6133 22.656 25.098C21.2886 26.5827 19.4339 27.4167 17.5 27.4167C15.5661 27.4167 13.7115 26.5827 12.344 25.098C10.9766 23.6133 10.2084 21.5997 10.2084 19.5001C10.2084 17.4004 10.9766 15.3868 12.344 13.9022C13.7115 12.4175 15.5661 11.5834 17.5 11.5834ZM17.5 14.7501C16.3397 14.7501 15.2269 15.2505 14.4064 16.1413C13.586 17.0321 13.125 18.2403 13.125 19.5001C13.125 20.7599 13.586 21.968 14.4064 22.8588C15.2269 23.7496 16.3397 24.2501 17.5 24.2501C18.6603 24.2501 19.7731 23.7496 20.5936 22.8588C21.4141 21.968 21.875 20.7599 21.875 19.5001C21.875 18.2403 21.4141 17.0321 20.5936 16.1413C19.7731 15.2505 18.6603 14.7501 17.5 14.7501Z" fill="white" fill-opacity="0.6"/>
</svg>
