<svg width="1262" height="12" viewBox="0 0 1262 12" fill="none" xmlns="http://www.w3.org/2000/svg">
<path d="M0.666667 6C0.666667 8.94552 3.05448 11.3333 6 11.3333C8.94552 11.3333 11.3333 8.94552 11.3333 6C11.3333 3.05448 8.94552 0.666666 6 0.666667C3.05448 0.666667 0.666666 3.05448 0.666667 6ZM1250.67 5.99989C1250.67 8.94541 1253.05 11.3332 1256 11.3332C1258.95 11.3332 1261.33 8.94541 1261.33 5.99989C1261.33 3.05437 1258.95 0.666557 1256 0.666557C1253.05 0.666558 1250.67 3.05437 1250.67 5.99989ZM6 7L1256 6.99989L1256 4.99989L6 5L6 7Z" fill="#F7D121"/>
</svg>
