<svg width="12" height="678" viewBox="0 0 12 678" fill="none" xmlns="http://www.w3.org/2000/svg">
<path d="M6 0.666667C3.05448 0.666666 0.666667 3.05448 0.666667 6C0.666666 8.94552 3.05448 11.3333 6 11.3333C8.94552 11.3333 11.3333 8.94552 11.3333 6C11.3333 3.05448 8.94552 0.666667 6 0.666667ZM5.99997 666.667C3.05445 666.667 0.666638 669.055 0.666637 672C0.666637 674.945 3.05445 677.333 5.99997 677.333C8.94549 677.333 11.3333 674.945 11.3333 672C11.3333 669.055 8.94549 666.667 5.99997 666.667ZM5 6L4.99997 672L6.99997 672L7 6L5 6Z" fill="#F7D121"/>
</svg>
