<svg width="37" height="40" viewBox="0 0 37 40" fill="none" xmlns="http://www.w3.org/2000/svg">
<path d="M6.16667 5H30.8333C31.2422 5 31.6343 5.17559 31.9235 5.48816C32.2126 5.80072 32.375 6.22464 32.375 6.66667V33.3333C32.375 33.7754 32.2126 34.1993 31.9235 34.5118C31.6343 34.8244 31.2422 35 30.8333 35H6.16667C5.75779 35 5.36566 34.8244 5.07654 34.5118C4.78743 34.1993 4.625 33.7754 4.625 33.3333V6.66667C4.625 6.22464 4.78743 5.80072 5.07654 5.48816C5.36566 5.17559 5.75779 5 6.16667 5ZM7.70833 8.33333V31.6667H29.2917V8.33333H7.70833ZM11.5625 15C10.9492 15 10.361 14.7366 9.92732 14.2678C9.49364 13.7989 9.25 13.163 9.25 12.5C9.25 11.837 9.49364 11.2011 9.92732 10.7322C10.361 10.2634 10.9492 10 11.5625 10C12.1758 10 12.764 10.2634 13.1977 10.7322C13.6314 11.2011 13.875 11.837 13.875 12.5C13.875 13.163 13.6314 13.7989 13.1977 14.2678C12.764 14.7366 12.1758 15 11.5625 15ZM10.0208 16.6667H13.1042V29.1667H10.0208V16.6667ZM18.5 17.3833C19.4003 16.4417 20.4517 15.8333 21.5833 15.8333C24.7761 15.8333 26.9792 18.6317 26.9792 22.0833V29.1667H23.8958V22.0833C23.8958 21.3098 23.6116 20.5679 23.1056 20.0209C22.5997 19.474 21.9134 19.1667 21.1979 19.1667C20.4824 19.1667 19.7962 19.474 19.2902 20.0209C18.7842 20.5679 18.5 21.3098 18.5 22.0833V29.1667H15.4167V16.6667H18.5V17.3833Z" fill="white" fill-opacity="0.6"/>
</svg>
