<svg width="28" height="40" viewBox="0 0 28 40" fill="none" xmlns="http://www.w3.org/2000/svg">
<path fill-rule="evenodd" clip-rule="evenodd" d="M14.2582 0C6.80653 0 0.7097 7.46632 0.7097 16.5918C0.7097 28.8698 13.0388 39.1567 13.4453 39.4885C13.7163 39.6544 13.9872 39.8204 14.2582 39.8204C14.5292 39.8204 14.8001 39.6544 15.0711 39.4885C15.4776 39.1567 27.8067 28.8698 27.8067 16.5918C27.8067 7.46632 21.7099 0 14.2582 0ZM14.2582 36.1702C11.684 33.8473 3.4194 25.5514 3.4194 16.5918C3.4194 9.29142 8.29686 3.31836 14.2582 3.31836C20.2195 3.31836 25.097 9.29142 25.097 16.5918C25.097 25.5514 16.8324 33.8473 14.2582 36.1702ZM8.8388 16.5918C8.8388 12.9416 11.2775 9.95509 14.2582 9.95509C17.2389 9.95509 19.6776 12.9416 19.6776 16.5918C19.6776 20.242 17.2389 23.2285 14.2582 23.2285C11.2775 23.2285 8.8388 20.242 8.8388 16.5918ZM14.2582 19.9102C12.7679 19.9102 11.5485 18.4169 11.5485 16.5918C11.5485 14.7667 12.7679 13.2735 14.2582 13.2735C15.7485 13.2735 16.9679 14.7667 16.9679 16.5918C16.9679 18.4169 15.7485 19.9102 14.2582 19.9102Z" fill="white"/>
</svg>
