<svg width="33" height="40" viewBox="0 0 33 40" fill="none" xmlns="http://www.w3.org/2000/svg">
<path fill-rule="evenodd" clip-rule="evenodd" d="M2.70969 16.5918C2.70969 7.46632 8.80651 0 16.2582 0C23.7099 0 29.8067 7.46632 29.8067 16.5918C29.8067 28.8698 17.4776 39.1567 17.0711 39.4885C16.8001 39.6544 16.5292 39.8204 16.2582 39.8204C15.9872 39.8204 15.7162 39.6544 15.4453 39.4885C15.0388 39.1567 2.70969 28.8698 2.70969 16.5918ZM5.41939 16.5918C5.41939 25.5514 13.684 33.8473 16.2582 36.1702C18.8324 33.8473 27.097 25.5514 27.097 16.5918C27.097 9.29142 22.2195 3.31836 16.2582 3.31836C10.2968 3.31836 5.41939 9.29142 5.41939 16.5918ZM16.2582 9.95509C13.2775 9.95509 10.8388 12.9416 10.8388 16.5918C10.8388 20.242 13.2775 23.2285 16.2582 23.2285C19.2389 23.2285 21.6776 20.242 21.6776 16.5918C21.6776 12.9416 19.2389 9.95509 16.2582 9.95509ZM13.5485 16.5918C13.5485 18.4169 14.7679 19.9102 16.2582 19.9102C17.7485 19.9102 18.9679 18.4169 18.9679 16.5918C18.9679 14.7667 17.7485 13.2735 16.2582 13.2735C14.7679 13.2735 13.5485 14.7667 13.5485 16.5918Z" fill="white" fill-opacity="0.6"/>
<mask id="mask0_328_61" style="mask-type:luminance" maskUnits="userSpaceOnUse" x="2" y="0" width="28" height="40">
<path fill-rule="evenodd" clip-rule="evenodd" d="M2.70969 16.5918C2.70969 7.46632 8.80651 0 16.2582 0C23.7099 0 29.8067 7.46632 29.8067 16.5918C29.8067 28.8698 17.4776 39.1567 17.0711 39.4885C16.8001 39.6544 16.5292 39.8204 16.2582 39.8204C15.9872 39.8204 15.7162 39.6544 15.4453 39.4885C15.0388 39.1567 2.70969 28.8698 2.70969 16.5918ZM5.41939 16.5918C5.41939 25.5514 13.684 33.8473 16.2582 36.1702C18.8324 33.8473 27.097 25.5514 27.097 16.5918C27.097 9.29142 22.2195 3.31836 16.2582 3.31836C10.2968 3.31836 5.41939 9.29142 5.41939 16.5918ZM16.2582 9.95509C13.2775 9.95509 10.8388 12.9416 10.8388 16.5918C10.8388 20.242 13.2775 23.2285 16.2582 23.2285C19.2389 23.2285 21.6776 20.242 21.6776 16.5918C21.6776 12.9416 19.2389 9.95509 16.2582 9.95509ZM13.5485 16.5918C13.5485 18.4169 14.7679 19.9102 16.2582 19.9102C17.7485 19.9102 18.9679 18.4169 18.9679 16.5918C18.9679 14.7667 17.7485 13.2735 16.2582 13.2735C14.7679 13.2735 13.5485 14.7667 13.5485 16.5918Z" fill="white"/>
</mask>
<g mask="url(#mask0_328_61)">
</g>
</svg>
